<svg width="100" height="100" viewBox="0 0 100 100" fill="none" xmlns="http://www.w3.org/2000/svg">
<path d="M28.8701 33.0478H70.5996L72.1486 20.4749H30.4192L28.8701 33.0478Z" fill="white"/>
<path d="M24.541 68.3156H66.2705L67.8514 55.435H42.0795L42.8646 48.9946H68.6471L69.9203 38.5649H28.1909L24.541 68.3156Z" fill="white"/>
<path d="M6.68432 3L5.38989 13.122C3.88325 24.9735 2.32357 37.2281 0.816943 49.3554L0.657782 50.5968C0.116667 54.8515 -0.435046 59.244 0.519862 63.6897C3.69228 78.5756 13.5384 83.4351 24.9337 89.069C26.0583 89.6313 27.2042 90.1937 28.3607 90.7772L40.3395 96.9098L40.679 96.7719C50.4827 92.9204 63.8727 87.6579 72.0424 84.5279C83.3846 80.1778 90.3024 72.2626 92.6048 61.0053C93.6021 56.1565 94.1432 51.1485 94.6631 46.3104C94.8965 44.1883 95.13 41.992 95.4058 39.8382C95.8727 36.0822 96.3501 32.3475 96.8276 28.6127C97.8568 20.5385 98.9178 12.1883 99.8939 3.91247L100 3H6.68432ZM92.1485 9.97082C91.4164 15.9549 90.6631 21.9178 89.9204 27.6897L89.8886 27.9019C89.4217 31.5835 88.9549 35.2653 88.4881 38.9576C88.2016 41.1751 87.9682 43.4032 87.7347 45.557C87.2042 50.4483 86.7056 55.0743 85.7825 59.6048C83.9576 68.496 78.6525 74.5226 69.5491 78.0133C67.4695 78.809 65.1989 79.6897 62.8329 80.6128C55.5331 83.4563 47.2679 86.6711 40.1061 89.1433C39.0239 88.5597 35.1724 86.4907 28.0318 82.809L26.9071 82.2255C16.9337 77.1008 9.7188 73.3873 7.34214 62.2149C6.63126 58.9257 7.09812 55.2971 7.58618 51.4456L7.74533 50.183C9.25196 38.0133 10.8223 25.7162 12.3395 13.8223L12.8382 9.93899H92.1485V9.97082Z" fill="white"/>
</svg>