<?xml version="1.0" encoding="UTF-8"?>
<svg xmlns="http://www.w3.org/2000/svg" viewBox="0 0 249.64 440">
  <g id="Layer_1" data-name="Layer 1"/>
  <g id="Layer_2" data-name="Layer 2">
    <g id="lone-pine">
      <path d="M124.37,.11c.14-.08,.29-.11,.44-.11,.16,0,.31,.04,.45,.11,8.33,4.6,4.49,21.32,4.49,29.76,0,.85,.38,.69,1.39-.14,3.64-3,9.21-7.58,18.07-16.44,1.97-1.97,2.38-.98,3.02,.83,.51,1.43,1.89,9.53,1.92,13.57,.02,2.25-2.36,4.42-2.36,4.42,0,0-18.11,13.14-20.97,15.43-.24,.19-.37,.48-.36,.79l.29,7.36c.03,.74,.85,1.17,1.48,.77,4.92-3.18,21.66-14.16,33.87-23.9,2.82-2.25,3.78-1.67,4.37,2.6,.34,2.43,.92,9.18,.66,14.92-.14,3.1-2.01,5.9-8.62,9.52-5.08,2.78-26.78,14.4-30.43,16.36-.33,.17-.52,.51-.5,.88l.32,8.24c.03,.7,.77,1.14,1.4,.81,7.17-3.73,41.09-21.38,50.41-26.93,4.65-2.77,4.43-2.01,4.87,1.05,.71,4.86,.6,12.91,.29,15.85-.58,5.39-1.71,7.45-7.59,10.01-6.06,2.63-42.72,17.63-47.94,19.77-.38,.15-.61,.52-.59,.92l.32,8.36c.03,.66,.68,1.09,1.29,.87,7.85-2.92,51.05-19.08,70.24-28.56,2.28-1.12,2.63-.4,2.8,2.36,.17,2.71,.06,14.93-.87,20.62-.92,5.64-5,7.9-9.84,9.52-4.26,1.43-55.28,15.12-62.02,16.93-.43,.12-.72,.51-.71,.96l.34,8.64c.02,.61,.6,1.04,1.19,.89,7.09-1.77,46.1-11.63,88.38-24,2.78-.81,2.6,.39,2.58,2.43-.02,1.96-1.3,20.29-2.5,24.02-1.74,5.43-3.06,6.83-10.51,8.19-6.92,1.27-69.55,10.67-77.39,11.89-.48,.08-.83,.5-.81,.99l.35,8.96c.02,.56,.51,.99,1.07,.92,9.22-1.14,77.67-8.74,103.1-13.44,3.2-.59,2.99,.88,2.77,2.75-.29,2.46-3.43,24.76-5.9,29.97-2.75,5.79-4.93,6.34-9.99,6.51-4.97,.17-79.76-2.11-89.09-2.42-.56-.02-1.01,.44-.99,1l.36,9.72c.02,.49,.41,.88,.89,.92,8.98,.55,81.38,4.83,109.21,6.62,3.33,.21,3.17,1.74,1.29,5.21-1.03,1.9-10.27,22.05-13.02,25.52-2.75,3.48-4.49,6.51-12.45,5.21-7.4-1.21-73.83-12.94-83.6-14.46-.59-.09-1.12,.38-1.1,.99l.42,10.4c.02,.44,.34,.81,.77,.9,9.12,1.71,94.65,19.07,97.33,19.64,2.82,.6,1.87,2.06,.99,3.55-2.36,4-16.63,20.77-20.96,23.77-5.65,3.9-9.67,4.24-16.78,1.62-6.45-2.39-50.42-20.54-59.05-23.76-.64-.24-1.31,.25-1.29,.94l.41,10.6c.01,.37,.24,.7,.59,.85,4.95,2.08,40.3,17.84,56.96,24.86,3.34,1.41,4.19,2.49,1.25,4.53-3.28,2.28-25.35,10.31-32.66,12.45-6.54,1.91-7.36,4.48-23.16-12.14-1.18-1.24-1.67-.49-1.77,.55l.69,18.71c1.85,39.07,5.18,78.21,7.12,91.36,.35,2.36,1.01,4.18-3.06,4.78-9.69,1.44-14.21,1.75-21.13,1.74-6.92,.01-11.43-.3-21.12-1.74-4.07-.6-3.41-2.41-3.06-4.78,1.94-13.15,5.27-52.29,7.12-91.36l.69-18.71c-.11-1.04-.59-1.79-1.77-.55-15.8,16.62-16.62,14.05-23.16,12.14-7.31-2.14-29.38-10.17-32.66-12.45-2.93-2.04-2.09-3.11,1.25-4.53,16.66-7.02,52.01-22.77,56.96-24.86,.34-.14,.57-.47,.59-.85l.41-10.6c.03-.68-.65-1.18-1.29-.94-8.62,3.22-52.59,21.37-59.05,23.76-7.11,2.63-11.14,2.29-16.78-1.62-4.33-3-18.59-19.77-20.95-23.77-.88-1.49-1.84-2.95,.99-3.55,2.68-.57,88.21-17.93,97.33-19.64,.44-.08,.76-.46,.77-.9l.42-10.4c.02-.6-.5-1.08-1.1-.99-9.78,1.52-76.21,13.25-83.61,14.46-7.96,1.3-9.69-1.73-12.45-5.21-2.75-3.47-11.99-23.62-13.02-25.52-1.88-3.47-2.05-5,1.29-5.21,27.83-1.79,100.23-6.07,109.21-6.62,.49-.03,.88-.43,.89-.92l.36-9.72c.02-.55-.43-1.01-.99-1-9.33,.31-84.11,2.59-89.09,2.42-5.06-.17-7.24-.72-9.99-6.51-2.47-5.21-5.61-27.51-5.9-29.97-.22-1.86-.43-3.34,2.77-2.75,25.43,4.7,93.88,12.3,103.1,13.44,.56,.07,1.05-.35,1.07-.92l.35-8.96c.02-.49-.33-.91-.81-.99-7.84-1.22-70.46-10.63-77.39-11.89-7.44-1.36-8.77-2.76-10.51-8.19-1.19-3.73-2.47-22.07-2.5-24.02-.03-2.04-.2-3.24,2.58-2.43,42.28,12.37,81.29,22.22,88.38,24,.59,.15,1.17-.29,1.19-.89l.34-8.64c.02-.45-.27-.85-.71-.96-6.75-1.81-57.76-15.51-62.02-16.93-4.85-1.62-8.92-3.88-9.85-9.52-.93-5.69-1.04-17.91-.87-20.62,.17-2.76,.52-3.48,2.8-2.36,19.19,9.48,62.39,25.64,70.24,28.56,.61,.23,1.26-.21,1.29-.87l.33-8.36c.01-.4-.22-.77-.59-.92-5.22-2.14-41.88-17.14-47.94-19.77-5.89-2.56-7.02-4.62-7.59-10.01-.32-2.94-.42-10.99,.28-15.85,.45-3.06,.22-3.82,4.87-1.05,9.32,5.54,43.24,23.2,50.41,26.93,.63,.33,1.37-.11,1.4-.81l.32-8.24c.01-.37-.18-.71-.5-.88-3.66-1.96-25.35-13.58-30.44-16.36-6.6-3.62-8.47-6.41-8.62-9.52-.27-5.74,.31-12.49,.65-14.92,.6-4.27,1.56-4.85,4.37-2.6,12.22,9.75,28.96,20.72,33.87,23.9,.63,.4,1.45-.03,1.48-.77l.29-7.36c.01-.3-.12-.59-.36-.79-2.86-2.29-20.97-15.43-20.97-15.43,0,0-2.37-2.17-2.35-4.42,.03-4.04,1.41-12.15,1.92-13.57,.64-1.81,1.05-2.81,3.02-.83,8.86,8.86,14.43,13.44,18.07,16.44,1.01,.83,1.39,.99,1.39,.14,0-8.44-3.84-25.16,4.49-29.76" fill="#006937"/>
    </g>
  </g>
</svg>